<svg width="32" height="30" viewBox="0 0 32 30" fill="none" xmlns="http://www.w3.org/2000/svg">
<mask id="path-1-inside-1_70_361" fill="white">
<path d="M13.125 26.2499H1.75002V1.74995H13.125C13.608 1.74995 14 1.35792 14 0.874975C14 0.392029 13.6079 0 13.125 0H0.874975C0.392029 0 0 0.391957 0 0.874975V27.1249C0 27.6079 0.392029 27.9999 0.874975 27.9999H13.1249C13.6079 27.9999 13.9999 27.6078 13.9999 27.1249C14 26.6419 13.6079 26.2499 13.125 26.2499Z"/>
</mask>
<path d="M13.125 26.2499H1.75002V1.74995H13.125C13.608 1.74995 14 1.35792 14 0.874975C14 0.392029 13.6079 0 13.125 0H0.874975C0.392029 0 0 0.391957 0 0.874975V27.1249C0 27.6079 0.392029 27.9999 0.874975 27.9999H13.1249C13.6079 27.9999 13.9999 27.6078 13.9999 27.1249C14 26.6419 13.6079 26.2499 13.125 26.2499Z" fill="white"/>
<path d="M1.75002 26.2499H-0.328056V28.328H1.75002V26.2499ZM1.75002 1.74995V-0.328129H-0.328056V1.74995H1.75002ZM13.9999 27.1249L11.9218 27.1246V27.1249H13.9999ZM13.125 24.1718H1.75002V28.328H13.125V24.1718ZM3.8281 26.2499V1.74995H-0.328056V26.2499H3.8281ZM1.75002 3.82803H13.125V-0.328129H1.75002V3.82803ZM13.125 3.82803C14.7558 3.82803 16.078 2.5055 16.078 0.874975H11.9219C11.9219 0.210342 12.4602 -0.328129 13.125 -0.328129V3.82803ZM16.078 0.874975C16.078 -0.755661 14.7556 -2.07808 13.125 -2.07808V2.07808C12.4602 2.07808 11.9219 1.53972 11.9219 0.874975H16.078ZM13.125 -2.07808H0.874975V2.07808H13.125V-2.07808ZM0.874975 -2.07808C-0.755549 -2.07808 -2.07808 -0.755847 -2.07808 0.874975H2.07808C2.07808 1.53976 1.53961 2.07808 0.874975 2.07808V-2.07808ZM-2.07808 0.874975V27.1249H2.07808V0.874975H-2.07808ZM-2.07808 27.1249C-2.07808 28.7557 -0.755549 30.0779 0.874975 30.0779V25.9218C1.53961 25.9218 2.07808 26.4601 2.07808 27.1249H-2.07808ZM0.874975 30.0779H13.1249V25.9218H0.874975V30.0779ZM13.1249 30.0779C14.7557 30.0779 16.078 28.7554 16.078 27.1249H11.9218C11.9218 26.4602 12.4601 25.9218 13.1249 25.9218V30.0779ZM16.078 27.1252C16.0782 25.4941 14.7555 24.1718 13.125 24.1718V28.328C12.4604 28.328 11.9217 27.7897 11.9218 27.1246L16.078 27.1252Z" fill="white" mask="url(#path-1-inside-1_70_361)"/>
<g filter="url(#filter0_d_70_361)">
<path d="M27.7464 13.3893L21.709 7.26524C21.3668 6.91961 20.813 6.92049 20.4717 7.26524C20.1296 7.60999 20.1296 8.16996 20.4717 8.51472L25.0217 13.1303H7.0029C6.51989 13.1303 6.12793 13.5259 6.12793 14.0141C6.12793 14.5024 6.51996 14.8979 7.0029 14.8979H25.0217L20.4717 19.5135C20.1296 19.8591 20.1296 20.4182 20.4717 20.763C20.8138 21.1086 21.3677 21.1086 21.709 20.763L27.7456 14.6389C28.0833 14.2985 28.0868 13.7289 27.7464 13.3893Z" fill="white"/>
<path d="M27.3904 13.7404L27.3933 13.7433C27.5353 13.8849 27.5376 14.1386 27.3906 14.2867L27.3895 14.2879L21.3532 20.4117C21.3531 20.4117 21.353 20.4118 21.353 20.4119C21.2077 20.5588 20.9737 20.5594 20.827 20.4112L20.8266 20.4108C20.6782 20.2612 20.6775 20.0163 20.827 19.8653L20.8278 19.8645L25.3778 15.2489L26.2167 14.3979H25.0217H7.0029C6.80064 14.3979 6.62793 14.2308 6.62793 14.0141C6.62793 13.7974 6.8006 13.6303 7.0029 13.6303H25.0217H26.2167L25.3778 12.7793L20.8278 8.1637L20.8266 8.16251C20.6779 8.01271 20.6779 7.76725 20.8266 7.61744L20.827 7.61699C20.9729 7.46968 21.2071 7.46936 21.3533 7.61668C21.3534 7.61679 21.3535 7.61689 21.3536 7.61699L27.3904 13.7404L27.3904 13.7404Z" stroke="white"/>
</g>
<defs>
<filter id="filter0_d_70_361" x="2.12793" y="7.00635" width="29.8721" height="22.0156" filterUnits="userSpaceOnUse" color-interpolation-filters="sRGB">
<feFlood flood-opacity="0" result="BackgroundImageFix"/>
<feColorMatrix in="SourceAlpha" type="matrix" values="0 0 0 0 0 0 0 0 0 0 0 0 0 0 0 0 0 0 127 0" result="hardAlpha"/>
<feOffset dy="4"/>
<feGaussianBlur stdDeviation="2"/>
<feComposite in2="hardAlpha" operator="out"/>
<feColorMatrix type="matrix" values="0 0 0 0 0 0 0 0 0 0 0 0 0 0 0 0 0 0 0.25 0"/>
<feBlend mode="normal" in2="BackgroundImageFix" result="effect1_dropShadow_70_361"/>
<feBlend mode="normal" in="SourceGraphic" in2="effect1_dropShadow_70_361" result="shape"/>
</filter>
</defs>
</svg>
